<svg width="76" height="22" viewBox="0 0 76 22" fill="none" xmlns="http://www.w3.org/2000/svg">
<path fill-rule="evenodd" clip-rule="evenodd" d="M33.625 3.66667C32.6636 3.66667 31.7416 4.05298 31.0617 4.74061C30.3819 5.42824 30 6.36087 30 7.33333V18.3333C30 19.3058 30.3819 20.2384 31.0617 20.9261C31.7416 21.6137 32.6636 22 33.625 22H55.375C56.3364 22 57.2584 21.6137 57.9383 20.9261C58.6181 20.2384 59 19.3058 59 18.3333V7.33333C59 6.36087 58.6181 5.42824 57.9383 4.74061C57.2584 4.05298 56.3364 3.66667 55.375 3.66667H53.2508C52.2894 3.66646 51.3675 3.28001 50.6879 2.59233L49.1871 1.07433C48.5075 0.386652 47.5856 0.00020767 46.6242 0H42.3758C41.4144 0.00020767 40.4925 0.386652 39.8129 1.07433L38.3121 2.59233C37.6325 3.28001 36.7106 3.66646 35.7492 3.66667H33.625ZM34.5312 7.33333C34.2909 7.33333 34.0604 7.23676 33.8904 7.06485C33.7205 6.89294 33.625 6.65978 33.625 6.41667C33.625 6.17355 33.7205 5.94039 33.8904 5.76849C34.0604 5.59658 34.2909 5.5 34.5312 5.5C34.7716 5.5 35.0021 5.59658 35.1721 5.76849C35.342 5.94039 35.4375 6.17355 35.4375 6.41667C35.4375 6.65978 35.342 6.89294 35.1721 7.06485C35.0021 7.23676 34.7716 7.33333 34.5312 7.33333ZM50.8438 11.9167C50.8438 13.6185 50.1754 15.2506 48.9857 16.4539C47.796 17.6573 46.1825 18.3333 44.5 18.3333C42.8175 18.3333 41.204 17.6573 40.0143 16.4539C38.8246 15.2506 38.1562 13.6185 38.1562 11.9167C38.1562 10.2149 38.8246 8.58276 40.0143 7.3794C41.204 6.17604 42.8175 5.5 44.5 5.5C46.1825 5.5 47.796 6.17604 48.9857 7.3794C50.1754 8.58276 50.8438 10.2149 50.8438 11.9167ZM49 11.5C49 12.6935 48.5259 13.8381 47.682 14.682C46.8381 15.5259 45.6935 16 44.5 16C43.3065 16 42.1619 15.5259 41.318 14.682C40.4741 13.8381 40 12.6935 40 11.5C40 10.3065 40.4741 9.16193 41.318 8.31802C42.1619 7.47411 43.3065 7 44.5 7C45.6935 7 46.8381 7.47411 47.682 8.31802C48.5259 9.16193 49 10.3065 49 11.5ZM8.69749 17.7005C8.69749 17.0945 8.48432 16.631 8.05797 16.3102C7.63162 15.9822 6.86419 15.6399 5.75569 15.2834C4.64719 14.9198 3.76962 14.5633 3.123 14.2139C1.36076 13.2585 0.479641 11.9715 0.479641 10.3529C0.479641 9.51159 0.714132 8.76292 1.18311 8.10695C1.6592 7.44385 2.33781 6.92692 3.21892 6.55615C4.10715 6.18538 5.10196 6 6.20336 6C7.31186 6 8.29957 6.20321 9.16647 6.60963C10.0334 7.00891 10.7049 7.57576 11.181 8.31016C11.6642 9.04456 11.9058 9.87879 11.9058 10.8128H8.70815C8.70815 10.0998 8.48432 9.54724 8.03665 9.15508C7.58899 8.75579 6.96012 8.55615 6.15006 8.55615C5.36843 8.55615 4.76088 8.72371 4.32743 9.05882C3.89397 9.38681 3.67725 9.82175 3.67725 10.3636C3.67725 10.8699 3.9295 11.2941 4.43401 11.6364C4.94563 11.9786 5.69529 12.2995 6.683 12.5989C8.50208 13.148 9.82731 13.8289 10.6587 14.6417C11.4901 15.4545 11.9058 16.467 11.9058 17.6791C11.9058 19.0267 11.3977 20.0856 10.3816 20.8556C9.36543 21.6185 7.99757 22 6.27797 22C5.08419 22 3.99701 21.7825 3.01641 21.3476C2.03581 20.9055 1.28615 20.303 0.767426 19.5401C0.255809 18.7772 0 17.893 0 16.8877H3.20827C3.20827 18.6061 4.2315 19.4652 6.27797 19.4652C7.03829 19.4652 7.63162 19.3119 8.05797 19.0053C8.48432 18.6916 8.69749 18.2567 8.69749 17.7005ZM26.7107 21.7861H23.5131V15.1123H17.2777V21.7861H14.0801V6.2139H17.2777V12.5241H23.5131V6.2139H26.7107V21.7861ZM71.2462 8.81283H76V6.2139H63.3588V8.81283H68.0486V21.7861H71.2462V8.81283Z" fill="black"/>
</svg>
