<svg width="15" height="37" viewBox="0 0 15 37" fill="none" xmlns="http://www.w3.org/2000/svg">
<path d="M15.0001 1.49928H8.39057L2.55447 37H8.98824L15.0001 1.49928Z" fill="#545454"/>
<path d="M3.99592 0L0 22C0.5 22 1.91562 22.4284 2 22C2.08438 21.5716 2.34115 21.1464 2.69272 21.0036L3.99592 11.9942L8.039 1.20478H12.0821V0H3.99592Z" fill="#545454"/>
<path d="M4.34619 12.4098L8.07286 1.29912L2.27192 36.6928L1.37923 29.8499C1.55502 28.8414 1.95812 26.3953 2.38001 24.639C4.32068 23.3324 3.38523 21.6286 2.72896 20.9771L4.34619 12.4098Z" fill="#545454"/>
<path fill-rule="evenodd" clip-rule="evenodd" d="M4.00532 0H12.1889V1.48224H15L9.21506 37H2.56424L2.61019 36.7094L2.26704 36.7082L1.26032 29.8533L1.26468 29.8273C1.43199 28.8293 1.86725 26.3972 2.2696 24.6557L2.28614 24.5841L2.35493 24.536C3.2139 23.9347 3.44878 23.2724 3.40894 22.6888C3.37152 22.1406 3.09008 21.6524 2.82236 21.3483C2.69922 21.4127 2.55996 21.4958 2.43289 21.5909C2.22161 21.7491 2.08341 21.911 2.05678 22.0516C2.04103 22.1347 1.98438 22.1641 1.9375 22.1953C1.89062 22.2266 1.8162 22.1953 1.64062 22.1953C1.46505 22.1953 1.29416 22.1791 1.08594 22.1484C0.6875 22.0898 0.339844 22.0312 0 22L0.0898438 21.5078L4.00532 0ZM3.24255 21.0915C3.56164 21.4482 3.89379 22.0173 3.93808 22.666C3.98512 23.3551 3.70565 24.1234 2.77465 24.8019C2.38267 26.5128 1.9621 28.8589 1.79434 29.8568L2.53953 34.9309L7.26255 4.96917L4.76279 12.7181L3.24255 21.0915ZM4.50009 10.5683L7.87972 1.19109H11.659V0.420455H4.46494L4.50009 0.421976V10.5683ZM3.97017 3.16949L0.488231 21.8922C0.851417 21.8922 0.946586 21.9572 1.30877 21.9572C1.37421 21.9572 1.49884 21.948 1.53964 21.9572C1.60494 21.6878 1.84153 21.4555 2.06927 21.2851C2.26344 21.1398 2.47795 21.0196 2.65049 20.9373L3.97017 12.0558V3.16949ZM8.64763 1.90269L3.16479 36.5795H8.74921L14.3972 1.90269H8.64763Z" fill="black"/>
</svg>
